<?xml version="1.0" encoding="utf-8"?>
<!-- Generator: Adobe Adobe Illustrator 24.2.0, SVG Export Plug-In . SVG Version: 6.00 Build 0)  -->
<svg version="1.1" id="Layer_1" xmlns="http://www.w3.org/2000/svg" xmlns:xlink="http://www.w3.org/1999/xlink" x="0px" y="0px"
	 width="48px" height="48px" viewBox="0 0 48 48" style="enable-background:new 0 0 48 48;" xml:space="preserve">
<style type="text/css">
	.st0{fill:#80C835;}
	.st1{fill:#252021;}
	.st2{fill:#252123;}
	.st3{fill:#242122;}
	.st4{fill:#262223;}
	.st5{fill:#221F20;}
	.st6{fill:#3A2D28;}
	.st7{fill:#302D2E;}
	.st8{fill:#422E24;}
	.st9{fill:#E98330;}
	.st10{fill:#2D2A2B;}
	.st11{fill:#312F2F;}
	.st12{fill:#333131;}
	.st13{fill:#383536;}
	.st14{fill:#443129;}
	.st15{fill:#F0832B;}
	.st16{fill:#EC832E;}
	.st17{fill:#DF7F32;}
	.st18{fill:#EAE9E7;}
	.st19{fill:#C47539;}
	.st20{fill:#E7822F;}
	.st21{fill:#3C251B;}
</style>
<g>
	<path class="st0" d="M36.22,30.02c-3.79,1.46-7.62,2.02-11.61,1.46c-1.38-0.19-2.78-0.2-4.15-0.29c-0.05,0.07-0.11,0.11-0.11,0.16
		c-0.04,3.28-0.14,6.56-0.09,9.83c0.04,2.62,1.87,3.22,3.75,3.52c1.12,0.18,2.26,0.28,3.39,0.38c0.48,0.04,0.65,0.24,0.61,0.69
		c-0.07,0.68-0.11,1.37-0.17,2.1c-8.26,0-16.44,0-24.67,0c0-0.78-0.06-1.53,0.04-2.26c0.03-0.2,0.48-0.45,0.78-0.51
		c1.03-0.2,2.11-0.2,3.11-0.5c1.97-0.59,2.45-2.25,2.55-3.99c0.17-3.19,0.28-6.39,0.34-9.59c0.14-7.54,0.26-15.08,0.34-22.62
		c0.01-0.93-0.12-1.89-0.35-2.79C9.61,4.23,8.48,3.58,7.14,3.31C6.09,3.09,5.01,2.99,3.82,2.82C3.88,1.96,3.93,1.1,4,0.15
		c0.39,0,0.67,0,0.95,0c6.37,0,12.74,0,19.11,0.01c2.94,0,5.88,0.14,8.75,0.82c4.5,1.06,8.48,2.94,10.95,7
		c2.12,3.48,2.74,7.26,2,11.22c-0.96,5.16-4.24,8.5-9.02,10.6C36.58,29.85,36.43,29.93,36.22,30.02z M21.98,14.39
		c-0.94,2.78-1.88,5.55-2.84,8.33c-0.41,1.2-0.27,1.83,0.92,2.26c1.32,0.47,2.72,0.9,4.11,0.99c2.38,0.16,4.79,0.12,7.18,0.01
		c1.67-0.08,3.35-0.37,4.8-1.29c0.61-0.38,1.16-0.87,0.82-1.69c-1.3-3.15-2.52-6.33-3.94-9.42c-1.16-2.51-1.69-5.09-1.55-7.81
		c0.06-1.14,0.07-1.26-1.1-1.27c-2.19-0.02-4.39,0.08-6.58,0.17c-0.28,0.01-0.55,0.22-0.65,0.26c0.1,0.82,0.23,1.49,0.24,2.16
		c0.02,1.16,0.12,2.36-0.11,3.49C23.02,11.83,22.45,13.03,21.98,14.39z"/>
</g>
</svg>
