<?xml version="1.0" encoding="utf-8"?>
<!-- Generator: Adobe Adobe Illustrator 24.2.0, SVG Export Plug-In . SVG Version: 6.00 Build 0)  -->
<svg version="1.1" id="Layer_1" xmlns="http://www.w3.org/2000/svg" xmlns:xlink="http://www.w3.org/1999/xlink" x="0px" y="0px"
	 width="1024px" height="1024px" viewBox="0 0 1024 1024" style="enable-background:new 0 0 1024 1024;" xml:space="preserve">
<style type="text/css">
	.st0{fill:#80C835;}
	.st1{fill:#252021;}
	.st2{fill:#252123;}
	.st3{fill:#242122;}
	.st4{fill:#262223;}
	.st5{fill:#221F20;}
	.st6{fill:#3A2D28;}
	.st7{fill:#302D2E;}
	.st8{fill:#422E24;}
	.st9{fill:#E98330;}
	.st10{fill:#2D2A2B;}
	.st11{fill:#312F2F;}
	.st12{fill:#333131;}
	.st13{fill:#383536;}
	.st14{fill:#443129;}
	.st15{fill:#F0832B;}
	.st16{fill:#EC832E;}
	.st17{fill:#DF7F32;}
	.st18{fill:#EAE9E7;}
	.st19{fill:#C47539;}
	.st20{fill:#E7822F;}
	.st21{fill:#3C251B;}
</style>
<g>
	<path class="st0" d="M785.18,640.99c-81.23,31.36-163.39,43.36-249.14,31.32c-29.53-4.15-59.65-4.26-89.15-6.2
		c-1.08,1.52-2.34,2.47-2.35,3.43c-0.85,70.33-3.03,140.68-1.9,210.98c0.9,56.29,40.08,69.05,80.46,75.57
		c24.08,3.89,48.49,6,72.83,8.06c10.36,0.88,14.01,5.21,13.1,14.82c-1.41,14.7-2.46,29.42-3.74,45.02c-177.14,0-352.67,0-529.27,0
		c0-16.79-1.24-32.85,0.8-48.5c0.57-4.36,10.4-9.63,16.72-10.84c22.11-4.25,45.35-4.33,66.67-10.71
		c42.36-12.67,52.59-48.25,54.62-85.61c3.72-68.51,6.08-137.13,7.39-205.73c3.09-161.74,5.53-323.48,7.4-485.24
		c0.23-20-2.6-40.55-7.59-59.97c-7.65-29.8-31.92-43.67-60.75-49.57c-22.57-4.63-45.65-6.9-71.13-10.59
		C91.33,38.94,92.54,20.35,93.86,0c8.34,0,14.33,0,20.33,0c136.67,0.04,273.33,0.02,410,0.13c63.11,0.05,126.06,3.06,187.65,17.55
		c96.55,22.72,181.99,63.04,235.01,150.14c45.45,74.67,58.81,155.73,43.01,240.68c-20.59,110.69-90.97,182.28-193.5,227.36
		C793.01,637.33,789.83,639.11,785.18,640.99z M479.82,305.6c-20.26,59.56-40.41,119.16-60.85,178.67
		c-8.85,25.77-5.75,39.34,19.71,48.51c28.3,10.19,58.33,19.3,88.13,21.26c51.17,3.35,102.83,2.49,154.12,0.11
		c35.83-1.66,71.79-7.84,102.98-27.59c13.04-8.26,24.82-18.68,17.53-36.37c-27.82-67.5-54.02-135.73-84.59-202.03
		c-24.85-53.89-36.18-109.14-33.28-167.55c1.22-24.53,1.55-27.05-23.58-27.24c-47.08-0.35-94.2,1.78-141.28,3.58
		c-5.94,0.23-11.71,4.64-13.9,5.57c2.05,17.66,4.89,31.95,5.1,46.28c0.36,24.99,2.47,50.65-2.39,74.85
		C502.09,250.7,489.72,276.46,479.82,305.6z"/>
</g>
</svg>
