<?xml version="1.0" encoding="utf-8"?>
<!-- Generator: Adobe Adobe Illustrator 24.2.0, SVG Export Plug-In . SVG Version: 6.00 Build 0)  -->
<svg version="1.1" id="Layer_1" xmlns="http://www.w3.org/2000/svg" xmlns:xlink="http://www.w3.org/1999/xlink" x="0px" y="0px"
	 width="1024px" height="768px" viewBox="0 0 1024 768" style="enable-background:new 0 0 1024 768;" xml:space="preserve">
<style type="text/css">
	.st0{fill:#C22929;}
	.st1{fill:#FEFFFE;}
</style>
<g>
	<g>
		<path class="st0" d="M651.76,428.33c-45.61,17.57-91.69,24.31-139.71,17.57c-16.61-2.29-33.45-2.41-49.94-3.49
			c-0.6,0.84-1.32,1.32-1.32,1.93c-0.48,39.47-1.68,78.94-1.08,118.29c0.48,31.53,22.5,38.75,45.13,42.36
			c13.48,2.17,27.2,3.37,40.79,4.57c5.78,0.48,7.82,2.89,7.34,8.3c-0.84,8.18-1.32,16.49-2.05,25.27c-99.4,0-197.83,0-296.86,0
			c0-9.39-0.72-18.41,0.48-27.2c0.36-2.41,5.78-5.42,9.39-6.14c12.39-2.41,25.39-2.41,37.42-6.02c23.71-7.1,29.48-27.08,30.69-48.01
			c2.05-38.39,3.37-76.89,4.09-115.4c1.68-90.73,3.13-181.46,4.09-272.19c0.12-11.19-1.44-22.74-4.21-33.57
			c-4.45-16.61-18.05-24.43-34.17-27.68c-12.64-2.65-25.63-3.85-39.95-5.9c0.72-10.35,1.32-20.7,2.17-32.13c4.69,0,8.06,0,11.43,0
			c76.65,0,153.3,0,229.96,0.12c35.38,0,70.76,1.68,105.29,9.87c54.15,12.76,102.04,35.38,131.77,84.23
			c25.51,41.88,32.97,87.36,24.07,135.01c-11.55,62.09-51.02,102.28-108.54,127.55C656.09,426.28,654.29,427.25,651.76,428.33z"/>
	</g>
</g>
<g>
	<path class="st1" d="M680.3,235.91c-7.6-11.99-24.73-11.52-31.69,0.85c-4.81,8.55-9.25,17.32-13.88,25.97
		c-1.5,2.81-3.13,5.55-5.04,8.93c-2.7-3.84-5.04-7.19-7.39-10.52c-1.52-2.15-2.1-4.51-2.1-7.17c0.04-28.09,0.01-56.19-0.01-84.28
		c-0.01-9.61,0.06-19.23-0.06-28.84c-0.13-9.59-4.2-15.13-12.11-16.79c-5.18-1.09-12.14,0.96-15.36,6.48
		c-1.9,3.25-2.65,6.65-2.65,10.3c-0.02,29.52-0.02,59.04-0.03,88.56c0,1.58,0.04,3.16-0.05,4.73c-0.03,0.53-0.23,1.29-0.62,1.52
		c-1.45,0.89-5.68-1.16-6.06-2.92c-0.25-1.17-0.43-2.38-0.43-3.57c-0.01-8.19,0.05-16.37,0.05-24.56c0.01-29.6,0-59.19,0-88.79
		c0-5.34-0.85-10.29-5.56-13.79c-5.39-4.01-13.97-4.39-19.12,0.37c-3.96,3.66-5.26,8.1-5.27,13.12
		c-0.04,37.03-0.02,74.06-0.02,111.1c0,3.54-0.78,4.5-3.52,4.5c-3.03,0-3.68-0.61-3.68-3.72c-0.01-19.15,0.01-38.31-0.02-57.46
		c-0.02-12.69,0.14-25.39-0.2-38.08c-0.27-9.91-9.52-15.53-18.59-13.45c-6.97,1.6-10.93,8.12-10.95,14.48
		c-0.07,22.46-0.05,44.92-0.06,67.38c-0.01,12.77-0.02,25.54,0.01,38.31c0.01,3.46-1.11,6.12-4.47,7.6
		c-2.48,1.09-2.79,0.94-2.79-1.81c0-24.34-0.01-48.67-0.01-73.01c0-4.89-1.52-9.03-5.26-12.41c-6.15-5.56-17.23-4.25-21.9,2.59
		c-2.39,3.49-2.88,7.31-2.87,11.33c0.02,39.06-0.08,78.12,0.14,117.18c0.07,12.22-0.8,24.49,1.21,36.85
		c0.34,1.66,0.61,3.14,0.97,4.59c2.87,11.47,8.35,21.62,15.85,30.67c9.64,11.64,21.65,20.13,35.86,25.17
		c14.16,5.02,28.83,6.1,43.47,2.58c14.31-3.44,27.7-8.97,37.62-20.65c2.74-3.23,5.73-6.24,8.45-9.47c0.11-0.13,0.21-0.24,0.31-0.35
		c1.41-2.3,2.91-4.57,4.41-6.8c1.57-2.33,2.81-4.87,4.43-7.16c0.45-0.64,0.92-1.26,1.39-1.88c1.65-3.09,3.36-6.15,5.13-9.16
		c0.84-1.42,1.71-2.82,2.58-4.23c-0.05-0.02-0.1-0.03-0.15-0.04c0.56-1.16,1-2.2,1.54-3.17c4.15-7.54,8.4-15.03,12.47-22.62
		c8.99-16.77,17.97-33.55,26.79-50.41C684.19,247.93,683.93,241.63,680.3,235.91z"/>
</g>
</svg>
