<?xml version="1.0" encoding="UTF-8"?>
<svg id="Layer_2" data-name="Layer 2" xmlns="http://www.w3.org/2000/svg" viewBox="0 0 351.26 446.65">
  <defs>
    <style>
      .cls-1 {
        fill: #a1a1a1;
      }

      .cls-2 {
        fill: #ffde16;
      }

      .cls-3 {
        fill: #80c835;
      }
    </style>
  </defs>
  <g id="Layer_1-2" data-name="Layer 1">
    <path class="cls-3" d="M260.7,328.72c-25.04,9.65-50.34,13.35-76.7,9.65-9.12-1.26-18.37-1.32-27.42-1.92-.33.46-.73.73-.73,1.06-.26,21.67-.92,43.34-.59,64.94.26,17.31,12.35,21.27,24.77,23.25,7.4,1.19,14.93,1.85,22.4,2.51,3.17.26,4.29,1.59,4.03,4.56-.46,4.49-.73,9.05-1.12,13.87H42.36c0-5.15-.4-10.11.26-14.93.2-1.32,3.17-2.97,5.15-3.37,6.8-1.32,13.94-1.32,20.55-3.3,13.01-3.9,16.19-14.86,16.85-26.36,1.12-21.07,1.85-42.22,2.25-63.36.92-49.81,1.72-99.63,2.25-149.44.07-6.14-.79-12.49-2.31-18.43-2.44-9.12-9.91-13.41-18.76-15.19-6.94-1.45-14.07-2.11-21.93-3.24.4-5.68-.15,2.73.31-3.54h6.28c42.08,0,85.05-14.1,127.13-14.03,19.42,0,38.85.92,57.81,5.42,29.73,7,56.02,19.42,72.34,46.25,14.01,22.99,18.1,47.96,13.21,74.12-6.34,34.09-28.01,56.16-59.59,70.03-1.06.33-2.05.86-3.44,1.45ZM166.62,225.46c-6.21,18.37-12.42,36.67-18.76,55.03-2.71,7.93-1.78,12.09,6.08,14.93,8.72,3.11,17.97,5.95,27.15,6.54,15.72,1.06,31.65.79,47.43.07,11.03-.53,22.13-2.44,31.71-8.52,4.03-2.51,7.66-5.75,5.42-11.16-8.59-20.81-16.65-41.82-26.03-62.23-7.66-16.58-11.16-33.63-10.24-51.6.4-7.53.46-8.32-7.27-8.39-14.47-.13-29,.53-43.47,1.12-1.85.07-3.63,1.45-4.29,1.72.66,5.42,1.52,9.84,1.59,14.27.13,7.66.79,15.59-.73,23.06-1.72,8.26-5.48,16.19-8.59,25.17Z"/>
    <g>
      <path class="cls-2" d="M89.55,29.07c3.27-1.34,6.32-2.7,9.43-3.92,1.74-.68,2.32-.23,2.52,1.69,1.09,10.28,2.17,20.56,3.26,30.84,1.13,10.69,2.25,21.37,3.4,32.06.08.78-.07,1.64.67,2.28.89.77,1.75,1.25,3.06,1.1,13.1-1.44,26.21-2.8,39.32-4.19,2.48-.26,3.38-1.4,3.11-3.92-1.12-10.69-2.25-21.37-3.38-32.06-1.08-10.2-2.16-20.39-3.22-30.59-.08-.76-.02-1.54-.02-2.56,1.62.11,2.98.08,4.29.32,5.1.94,10.16,2.03,15.18,3.33,1.87.49,2.26,1.01,2.47,3.04,1.93,18.27,3.86,36.55,5.79,54.82.06.57.11,1.14.18,1.71.32,2.44,1.26,3.2,3.76,2.94,8.23-.85,16.45-1.72,24.67-2.61,2.6-.28,3.33-1.2,3.05-3.86-1.2-11.42-2.41-22.84-3.61-34.26-.07-.62-.13-1.25-.23-2.16.71.22,1.21.25,1.53.5,3.83,2.9,7.44,6.08,10.65,9.65,3.12,3.46,6.03,7.1,8.98,10.72,3.23,3.97,5.89,8.34,8.32,12.83,1.7,3.14,3.13,6.43,4.61,9.68,1.65,3.62,2.94,7.37,4.1,11.19.92,3.02,1.64,6.07,2.12,9.19.41,2.65.97,5.28,1.44,7.75-.25.26-.31.33-.37.38-.06.05-.12.13-.19.14-.48.08-.97.15-1.46.2-72.27,7.64-144.54,15.27-217.08,22.94-.3-1.93-.43-3.78-.51-5.63-.04-.96.1-1.93,0-2.88-.15-1.46-.03-2.88.24-4.32.23-1.24.37-2.5.4-3.76.18-6.64,1.56-13.11,2.96-19.55.62-2.83,1.6-5.61,2.61-8.33,1.4-3.77,2.87-7.53,4.51-11.2,1.23-2.74,2.76-5.35,4.2-8,.95-1.74,1.88-3.52,3-5.15,1.83-2.67,3.81-5.24,5.75-7.84.11-.15.43-.15.67-.23.65.8.48,1.75.57,2.61,1.1,10.19,2.16,20.39,3.26,30.59.08.7.24,1.42.49,2.08,1.04,2.75,2.39,2.83,4.62,2.78,2.69-.06,5.37-.52,8.06-.8,5.05-.53,10.1-1.04,15.14-1.62.93-.11,1.85-.42,2.73-.76.78-.3,1.32-.87,1.33-1.82,0-1.13.2-2.27.08-3.38-1.89-18.11-3.81-36.22-5.72-54.33-.09-.81-.17-1.61-.26-2.45,2.86-2.32,6.25-3.42,9.49-5.17Z"/>
      <path class="cls-2" d="M41.78,142.96c8.54-.93,16.83-1.86,25.13-2.74,8.37-.89,16.75-1.71,25.13-2.58,8.38-.87,16.75-1.75,25.13-2.65,7.8-.84,15.6-1.73,23.41-2.55,9.11-.96,18.23-1.86,27.34-2.81,10.9-1.13,21.79-2.29,32.69-3.44,8.54-.9,17.08-1.8,25.62-2.7,7.32-.78,14.65-1.48,21.97-2.37,4.35-.53,8.61-.27,12.71,1.21,4.54,1.63,8.33,4.4,11.28,8.26,1.84,2.4,3.24,5.04,4.2,7.92.12.37.1.79.13,1.14-.08.13-.12.21-.17.26-.05.05-.13.09-.2.1-91.81,9.71-183.63,19.41-275.44,29.11-.14.01-.29-.09-.58-.18-.34-1.75.17-3.49.62-5.16,2-7.5,6.63-12.97,13.41-16.55,2.18-1.15,4.62-1.83,7.13-2.09,6.75-.7,13.51-1.43,20.5-2.17Z"/>
      <path class="cls-2" d="M146.59,69.5c.44,4.16.87,8.07,1.26,11.99.15,1.5,0,1.68-1.53,1.85-10.5,1.12-21,2.22-31.5,3.33-.23.02-.47-.03-.8-.06-2.91-27.57-5.82-55.11-8.75-82.82.96-.46,2.09-.79,3.29-.91,8.87-.93,17.74-1.89,26.62-2.79,1.27-.13,2.57-.03,4.07-.04,2.44,23.12,4.88,46.17,7.34,69.46Z"/>
      <path class="cls-2" d="M177.79,45.41c-.66-6.27-1.3-12.29-1.96-18.51.48,0,.89-.1,1.2.03,2.49,1.12,5.03,2.18,7.43,3.48,3.7,1.99,7.33,4.12,10.94,6.26.55.32.88,1.05,1.23,1.65.15.26.09.64.12.97,1.29,12.23,2.58,24.45,3.87,36.68l.16,1.51c-6.5.69-12.82,1.35-19.4,2.05-1.19-11.28-2.38-22.57-3.6-34.11Z"/>
      <path class="cls-2" d="M57.92,70.95c-.58-5.46-1.03-10.69-1.74-15.89-.24-1.73.34-2.85,1.47-3.87,2.71-2.45,5.4-4.91,8.2-7.25,2.04-1.71,4.24-3.24,6.39-4.82.43-.31.98-.46,1.64-.75.14.55.29.91.33,1.28,1.72,16.22,3.44,32.44,5.15,48.66.03.33.1.65.11.98.02.64-.23,1.1-.92,1.21-.16.02-.33.04-.49.05-5.85.62-11.71,1.24-17.83,1.88-.27-2.4-.54-4.73-.79-7.06-.26-2.36-.5-4.73-.75-7.09s-.5-4.73-.78-7.34Z"/>
    </g>
    <g>
      <path class="cls-1" d="M351.26,362.59c-.26,1-.42,1.97-.81,2.83-.49,1.11-1.09,2.19-1.79,3.19-1.45,2.1-2.91,4.21-4.53,6.19-1.74,2.13-3.89,3.84-6.42,4.96-1.66.73-3.4,1.27-5.14,1.79-.81.24-1.69.3-2.55.35-2.21.13-4.42.21-6.63.32-1.75.09-3.5.18-5.24.32-.29.02-.61.24-.82.45-4.77,4.75-9.52,9.52-14.28,14.28-5.71,5.7-11.43,11.39-17.14,17.09-3.92,3.92-7.83,7.85-11.75,11.78-4.28,4.28-8.54,8.58-12.84,12.84-2.59,2.58-5.7,4.05-9.41,3.79-3.39-.23-6.21-1.66-8.42-4.33-1.3-1.58-2.17-3.37-2.48-5.3-.31-1.93-.24-3.93.47-5.87.69-1.89,1.77-3.49,3.16-4.88,18.43-18.45,36.87-36.89,55.34-55.3.85-.85,1.19-1.73,1.25-2.84.15-3.25.28-6.5.47-9.75.29-4.99,1.95-9.44,5.33-13.19,1.76-1.96,3.91-3.43,6.04-4.92,1.21-.85,2.41-1.74,3.69-2.47,2.84-1.62,5.85-2.01,9.01-1.06,1.76.53,3.31,1.41,4.66,2.66,1.32,1.22,1.35,2.59.07,3.87-3.08,3.08-6.15,6.17-9.25,9.24-1.01,1-1.78,2.14-1.8,3.59-.02,1.17.31,2.29,1.16,3.16,2.49,2.52,4.98,5.04,7.51,7.51,1.76,1.72,4.43,1.84,6.28.02,3.15-3.11,6.28-6.24,9.43-9.35.63-.62,1.24-1.29,2.26-1.31.75-.02,1.32.27,1.82.76,1.35,1.35,2.32,2.94,2.84,4.78.18.62.24,1.28.41,1.94.06.94.06,1.87.06,2.86ZM254.83,435.23c2.07-.57,4.14-3.33,3.2-6.29-.99-3.1-4.59-4.47-7.29-2.95-3.35,1.88-3.46,6.37-.64,8.49,1.42,1.07,2.97,1.25,4.74.75Z"/>
      <path class="cls-1" d="M275.71,364.94c3.34,3.33,6.63,6.62,9.9,9.88-5.95,5.94-11.85,11.84-17.83,17.81-4.54-4.56-9.15-9.19-13.89-13.95-.7.75-1.3,1.45-1.94,2.09-3.08,3.07-6.2,6.09-9.24,9.2-1.4,1.44-3.64,1.62-5.26,0-5.67-5.69-11.35-11.36-17.03-17.04-.49-.49-.67-1.04-.75-1.74-.22-1.87.49-3.17,1.83-4.46,4.19-4.03,8.25-8.19,12.35-12.3.19-.19.38-.4.6-.62-.38-.42-.76-.79-1.09-1.2-1.28-1.61-1.26-3.28.14-4.74,2.44-2.54,4.99-4.97,7.48-7.47,1.16-1.16,3.5-1.09,4.73.18.98,1.01,1.02.98,1.99,0,1.54-1.55,3.41-2.31,5.57-2.54,1.35-.14,2.67-.46,4.01-.68,1.49-.24,2.98-.45,4.48-.68,1.99-.31,3.97-.61,5.96-.93,1.41-.23,2.81-.52,4.23-.75,1.46-.24,2.93-.46,4.41-.64,1.52-.18,3.05-.41,4.58-.43,1.93-.02,3.48.99,4.84,2.26.98.91,1.85,1.94,2.83,2.85,1.31,1.21,1.51,3.6-.08,5.18-5.5,5.46-10.96,10.97-16.43,16.46-.08.08-.16.18-.32.37,1.32,1.3,2.62,2.59,3.96,3.91Z"/>
      <path class="cls-1" d="M295.16,419.99c-1.41-1.4-2.78-2.77-4.14-4.11,5.94-5.92,11.85-11.81,17.81-17.76.09.08.33.26.54.47,7.48,7.48,14.96,14.96,22.45,22.44,1.75,1.75,2.92,3.81,3.57,6.23.48,1.76.54,3.55.2,5.24-.69,3.43-2.43,6.32-5.47,8.25-2.4,1.52-5.04,2.31-7.88,2.03-2.96-.29-5.63-1.36-7.79-3.52-6.41-6.42-12.83-12.83-19.29-19.28Z"/>
    </g>
  </g>
</svg>