<?xml version="1.0" encoding="UTF-8"?>
<svg id="Layer_1" data-name="Layer 1" xmlns="http://www.w3.org/2000/svg" viewBox="0 0 612 792">
  <defs>
    <style>
      .cls-1 {
        fill: #636464;
      }
    </style>
  </defs>
  <path class="cls-1" d="M519.92,251.9c-25.59-42.03-66.82-61.49-113.41-72.45-29.72-6.99-60.1-8.44-90.55-8.47-65.95-.05-131.9-.04-197.85-.06h-9.81c-.64,9.82-1.22,18.79-1.79,27.62,12.3,1.78,23.43,2.88,34.32,5.11,13.91,2.85,25.62,9.54,29.32,23.92,2.41,9.37,3.77,19.29,3.66,28.94-.9,78.06-2.08,156.11-3.57,234.16-.63,33.1-1.77,66.22-3.57,99.28-.98,18.03-5.92,35.2-26.36,41.31-10.29,3.08-21.5,3.12-32.17,5.17-3.05.58-7.79,3.13-8.07,5.23-.98,7.55-.39,15.3-.39,23.4h255.41c.62-7.53,1.12-14.63,1.8-21.73.44-4.64-1.32-6.73-6.32-7.15-11.75-.99-23.53-2.01-35.15-3.89-19.49-3.15-38.39-9.3-38.83-36.47-.55-33.92.51-67.87.92-101.81,0-.46.61-.92,1.13-1.66,14.24.94,28.77.99,43.02,2.99,41.38,5.81,81.03.02,120.23-15.11,2.24-.91,3.78-1.77,5.4-2.48,49.48-21.75,83.44-56.3,93.38-109.72,7.62-40.99,1.18-80.11-20.76-116.14ZM377.57,449h-56.25v-48.22h56.25v48.22ZM372.66,389.48h-46.43l-9.82-181.41h66.08l-9.82,181.41Z"/>
</svg>