<?xml version="1.0" encoding="UTF-8"?>
<svg id="uuid-db867a75-c3f3-4469-8187-f6fcd96a769d" data-name="Layer 1" xmlns="http://www.w3.org/2000/svg" viewBox="0 0 1661.15 400.8">
  <defs>
    <style>
      .uuid-44a00269-a283-47bf-8a3e-5e28f9c6ab80 {
        fill: #1f1d1e;
      }

      .uuid-4d77abe6-9292-4310-9ec9-5026c3c737d8 {
        fill: #201d1e;
      }

      .uuid-10c0328a-641a-4d17-bfcb-c859eb1063ba {
        fill: #141213;
      }

      .uuid-ea6ae7d2-f531-40e2-9ce8-fdc2baefaa11 {
        fill: #201e1f;
      }

      .uuid-cdae0ee0-550b-46a1-8551-7b792968b2b5 {
        fill: #868586;
      }

      .uuid-0294cd88-078f-434d-8268-1089b644deeb {
        fill: #211d1e;
      }

      .uuid-673a9825-ab0d-4c7e-a0ce-ddb7978851dc {
        fill: #231f20;
      }

      .uuid-78bebad2-fcb5-4b01-aef5-40148108ada1 {
        fill: #47220b;
      }

      .uuid-b779dcdc-44b1-4b7f-840b-932746f31209 {
        fill: #f58429;
      }

      .uuid-45067a1e-24d2-4707-bc4a-a9cc1d20a7f7 {
        fill: #201b1f;
      }

      .uuid-38bda189-1f83-4f14-8dc7-7a0bf7252ea5 {
        fill: #7a7878;
      }

      .uuid-dcf50e1a-ec2c-40b7-b4ca-18dd9d839a06 {
        fill: #171518;
      }

      .uuid-be26353f-4bfc-412a-b9e3-e645b2166e97 {
        fill: #2a1a10;
      }

      .uuid-19972801-3193-4661-9a8e-babd25e8dacf {
        fill: #1d1a1d;
      }

      .uuid-b5c0e694-a35b-4b37-8772-aba335dc8c94 {
        fill: #1f1b1d;
      }

      .uuid-2c44ebd6-9d12-49bf-9a64-cff267d3ab3e {
        fill: #f1852c;
      }

      .uuid-2d6787f8-562d-4ed1-80ba-01e5de018d38 {
        fill: #ec8533;
      }

      .uuid-aa02ebff-4a55-494f-accf-d315e7621324 {
        fill: #201c1d;
      }

      .uuid-a98a309b-6f72-4a49-be2d-26828723d619 {
        fill: #ec8532;
      }

      .uuid-89996f3d-15d0-47c5-b4ce-d1d402968a4e {
        fill: #30170b;
      }

      .uuid-67507478-e5f7-4073-b13c-7098385899c5 {
        fill: #171617;
      }

      .uuid-5e024be1-1504-432a-8d40-4f86455f5b49 {
        fill: #1e1b1d;
      }

      .uuid-60d27240-5159-454b-90e3-3de2fffbe993 {
        fill: #80c835;
      }
    </style>
  </defs>
  <path class="uuid-60d27240-5159-454b-90e3-3de2fffbe993" d="M206.67,226.99c-22.72,9.22-45.69,12.76-69.61,9.22-8.27-1.2-16.67-1.26-24.88-1.83-.3.44-.66.7-.66,1.01-.24,20.72-.84,41.45-.54,62.11.24,16.55,11.21,20.34,22.48,22.24,6.72,1.14,13.55,1.77,20.33,2.4,2.88.25,3.9,1.52,3.66,4.36-.42,4.3-.66,8.66-1.02,13.27H8.51c0-4.93-.36-9.67.24-14.28.18-1.26,2.88-2.84,4.68-3.22,6.18-1.26,12.65-1.26,18.65-3.16,11.81-3.73,14.69-14.22,15.29-25.21,1.02-20.16,1.68-40.37,2.04-60.59.84-47.64,1.56-95.28,2.04-142.92.06-5.88-.72-11.94-2.1-17.63-2.22-8.72-8.99-12.83-17.03-14.53-6.3-1.39-12.77-2.02-19.91-3.1.36-5.43.66-10.87,1.08-16.87h5.7c38.19,0,76.39,0,114.58.06,17.63,0,35.26.88,52.46,5.18,26.98,6.7,50.84,18.58,65.65,44.23,12.71,21.99,16.43,45.87,11.99,70.89-5.76,32.6-25.42,53.71-54.08,66.97-.96.32-1.86.82-3.12,1.39ZM121.29,128.23c-5.64,17.56-11.27,35.07-17.03,52.63-2.46,7.58-1.62,11.56,5.52,14.28,7.91,2.97,16.31,5.69,24.64,6.26,14.27,1.01,28.72.76,43.05.06,10.01-.51,20.09-2.34,28.78-8.15,3.66-2.4,6.96-5.5,4.92-10.68-7.79-19.9-15.11-39.99-23.62-59.52-6.96-15.86-10.13-32.16-9.29-49.35.36-7.2.42-7.96-6.6-8.02-13.13-.13-26.32.51-39.45,1.07-1.68.06-3.3,1.39-3.9,1.64.6,5.18,1.38,9.41,1.44,13.65.12,7.33.72,14.91-.66,22.05-1.56,7.9-4.98,15.48-7.79,24.07Z"/>
  <g>
    <path class="uuid-673a9825-ab0d-4c7e-a0ce-ddb7978851dc" d="M780.78,260c-20.53-.97-41.09-9.36-53.74-26.09-1.93-2.56-7.88-14.49-7.88-17.14v-59.89h23.5c.11,0,1.57,1.45,1.57,1.56v57.29c0,1.84,4.35,9.97,5.82,11.9,15.07,19.64,44.11,22.8,65.11,10.93,27.37-15.45,15.85-48.28,17.79-74.96.07-.98.75-6.72,1.09-6.72h21.93v139.05c0,2.85-6.76,15.36-8.95,18.15-12.12,15.42-32.23,24.19-51.62,25.07-4.94.23-10.73.24-15.67,0-29.26-1.44-62.76-21.53-60.57-54.16h23.5c2.09,0,1.5,8.07,2.03,10.48,7.5,34.11,66.25,38.78,83.97,9.67.77-1.27,4.34-8.51,4.34-9.21v-47.39l-18.55,8.06c-6.84,1.97-13.01,3.06-20.09,3.4-4.3.2-9.28.2-13.58,0Z"/>
    <path class="uuid-673a9825-ab0d-4c7e-a0ce-ddb7978851dc" d="M944.75,262.08c-13.79.15-24.9-.32-37.88-5.45-14.71-5.82-30.93-18.44-35.23-34.13h24.54c1.07,0,7.78,9.85,9.37,11.48,15.13,15.55,50.34,17.17,67.34,4.61,13.35-9.86-5.12-15.02-13.25-16.89-19.71-4.52-68.74-5.5-81.24-21.06-11.01-13.71,2-27.42,14.44-33.56,25.93-12.79,62.73-13.47,87.74,1.44,9.36,5.58,21.47,15.62,22.65,26.89h-23.5c-.49,0-4.1-6.05-5.2-7.31-13.7-15.62-48.79-18.05-65.24-6.7-17.61,12.16,11.74,16.63,20.43,18.06,18.67,3.06,64,4.2,74.42,21.61,1.54,2.57,1.62,4.98,2.23,7.67v5.21c-5.22,21.15-36.29,27.76-55.21,28.15-1.95.04-4.14,0-6.41-.02Z"/>
    <path class="uuid-673a9825-ab0d-4c7e-a0ce-ddb7978851dc" d="M1167.21,204.79c.21,3.44-.14,6.97,0,10.42-10.18,57.13-107.79,62.11-132.16,13.58-18.1-36.04,19.61-68,53.29-70.88,30.31-2.6,76.69,10.87,78.86,46.88ZM1096.19,174.59c-28.44,1.65-54.46,29.39-33.41,55.72,18.57,23.23,65.39,21.89,78.88-5.68,12.61-25.77-11.07-48.38-36.07-50.04-1.81-2.04-6.08-.91-8.73-.86l-.67.86Z"/>
    <path class="uuid-673a9825-ab0d-4c7e-a0ce-ddb7978851dc" d="M467.23,158.21c20.7-2.12,41.71,1.6,58.63,13.87,19.8,14.36,28.03,37.24,14.9,59.46-23.84,40.34-100.83,40.34-124.66,0-21.93-37.12,15.83-69.72,51.13-73.34ZM476.66,173.76c-38.94,2.22-60.02,45.03-22.44,66.63,20.06,11.53,52.7,7.36,65.3-13.37,11.94-19.64.43-40.97-19.4-49.07-6.06-2.47-17.02-4.56-23.46-4.19Z"/>
    <rect class="uuid-673a9825-ab0d-4c7e-a0ce-ddb7978851dc" x="1196.45" y="78.76" width="25.07" height="183.32"/>
    <path class="uuid-673a9825-ab0d-4c7e-a0ce-ddb7978851dc" d="M306.63,258.96c-.43.43-.21.87-1.51,1.05-2.61.36-16.8.45-18.72-.15-.55-.17-1.7-1.11-1.7-1.42v-98.95c0-.11,1.46-1.56,1.57-1.56h18.8c2.93,0,.83,11.62,1.57,12.5.49.58,11.65-5.99,13.58-6.76,21.43-8.63,50.99-8.11,71.74,2.39,1.89.96,11.81,7.8,11.81,9.06v33.85c-1.55-.3-5.23.53-6.16-.11-.44-.3-1.93-8.25-2.73-10.3-6.57-16.78-28.89-26.06-45.99-25.06-16.15.95-38.35,11.96-41.78,29.16-2.4,12.02-.47,35.64-.47,49.01v7.29Z"/>
    <path class="uuid-673a9825-ab0d-4c7e-a0ce-ddb7978851dc" d="M1334.31,151.67c.82,6.75,1.54,12.63,5.8,17.66,5.25,6.19,15.64,10.88,20.29,6.8,8.93-7.83-3.93-20.17-11-13.05-2.29,2.3-.4,5.92-4.67,3.72-6.98-3.59-11.3-21.01-3.13-25.03,19.33-9.52,39.17,3.45,42.83,23.45v8.33c-7.32,39.91-61.01,29.69-69.46-2.08-6.34-23.85,3.47-39.23,5.65-61.03,1.42-14.12-4.96-23.37-14.53-32.71,21.29-2.32,27.41,18.14,28.2,35.41,0,.13,0,.04,0,16.67v8.33c-.4,3.28-.68,7.98,0,13.54Z"/>
    <path class="uuid-89996f3d-15d0-47c5-b4ce-d1d402968a4e" d="M1472.17,94.38c2.84,5.05-.75,10.45-1.85,15.34-4.16,18.65-5.91,28.39-2.55,47.9,3.32,19.32,4.74,41.58-4.46,59.69-1.18,2.32-7.05,8.78-6.81,9.87.28,1.27,3.7,1.65,4.73,2.59l13.03,10.44c-.52-.34-2.22-.4-3.47-1.19-8.48-5.41-20.09-14.25-28.9-18.08-19.28-8.4-14.99,12.56-15.65,23.98-1.4,23.98-5.25,52.11-3.17,76.04.08.89.89,5.49,1.07,5.72.27.35,6.62-1.25,8.88-1.08s5.32,1.89,6.29,1.82c1.12-.08,7.85-8.81,14.1-7.61,2.38.46,4.6,3.16,6.59,2.62,2.84-.78,2.43-4.68,3.77-6.75s6.52-4.37,9.05-4.61c1.78-.17,7.43,1.62,7.72-2.1.62,6.12-5.17,3.69-8.84,4.2-6.93.98-7.81,9.36-10.66,10.2-4.78,1.42-6.31-2.14-9.15-1.94-4.98.34-8.22,6.4-10.71,7.15-3,.91-6.06-.79-9.18-.93-3.91-.17-8.2,2.6-9.73-1.73-1.85-5.22-.23-7.75-.18-12.22.17-14.95-1.73-34.74,0-48.9.42-3.41,5.8-15.93-1.58-15.23-1.92.18-3.56,1.85-6.28,2.14-12.91,1.41-32.67.61-43.38-6.29,4.98.57,9.46,2.95,14.36,3.91,12.85,2.51,25.08,1,37.86-.78-.74-1.82.89-8.94.57-9.38-1.11-1.55-5.47-.95-7.94-1.49-2.08-.46-4.46-2.31-5.87-2.54-1.55-.25-3.1,2.47-4.78,3.24-5.49,2.53-7.9-1.16-11.72-1.18-2.18-.01-5.14,1.96-7.18,1.73-2.37-.27-4.79-3.18-6.63-3.72-3.43-1-6.9,1.74-10.32-1.18-.99-.85-1.19-2.62-1.69-2.97-.98-.67-3.82-.11-6.05-1.79-4.01-3.01.3-2.08-6.56-3.85-4.58-1.18-3.42-3.78-5.21-5.77-.78-.87-2.73-1.18-3.94-2.83-1.64-2.24-2.57-5.66-5.18-7.85.25-.47.54-.83,1.04-1.04,1.45,1.76,3.98,1.9,4.71,3.11s.27,3.15.99,4.22c.61.91,2.95,1.13,4.24,2.02,2,1.38,3.05,4.34,3.89,4.97.97.73,3.3.61,4.96,1.83,1.51,1.11,1.9,3.23,2.26,3.46,1.02.67,3.5-.36,5.08.66,1.24.8,1.5,3.86,3.79,4.54,3.55,1.05,7.89-1.06,9.16-.77s1.04,3.96,6.36,4.15c3.54.12,4.71-2.18,6.24-2.2,1.61-.01,3.03,2.15,4.64,2.71,7.05,2.44,9.13-4.76,12.05-4.77,1.69,0,3.96,1.96,5.77,2.61,9.71,3.49,6.46-.43,7.28-7.31.94-7.85,4.69-12.14,13.04-10.87,2.03.31,9.64,4.54,11,3.09.51-.54-.52-9.41.18-11.8.78-2.65,4.86-2.21,7.07-4.41,2.53-2.52,3.73-6.62,2.98-10.14-.4-1.87-3.2-5.05-2.88-6.38.34-1.43,4.74-1.6,5.22-7.36.56-6.79-5.45-13.76-5.26-14.56.4-1.73,4.7-.4,4.21-7.34-.35-4.9-5.23-9.82-5.24-10.41-.02-.72,6.11-2.62,6.33-8.34.08-2.04-1.13-6.62-2.26-8.24s-2.62-1.34-3.02-1.67c-.77-.63,5.29-7.27,5.29-10.91s-2.55-5.29-3.71-7.83c-2.11-4.64,1.02-2.44,3.97-3.28,5.29-1.51,3.29-13.84,3.84-14.4.62-.64,5.97,2.51,8.35,2.08ZM1472.15,97.54c-.17-.16-3.94-1.3-4.15-1.07-.25.27-.26,4.92-1.63,7.23s-6.7,5.49-6.78,5.93c-.68,3.75,2.28,6.98,2.12,10.19-.16,3.16-3.32,5.8-3.15,8.34.25,3.76,4.01,5.73,3.22,12.63-.37,3.23-3.25,5.06-3.19,7.25.07,2.39,4,4.64,3.19,11.5-.43,3.62-2.54,3.61-3.06,5.33-.88,2.91,3.94,9.21,2.97,15.41-.3,1.94-1.72,3.33-2.02,5.27-1.24,8.04,3,19.93-9.36,21.39.52,3.82-.99,7.27-1.17,10.87-.23,4.67.48,2.8,2.64,4.66.75.65,2.91,3.14,3.16,3.14.74,0,3.83-4.79,4.5-5.91,19.71-32.8,1.11-59.85,5.51-93.45.62-4.72,2.11-10.75,3.33-15.43.54-2.07,4.64-12.52,3.86-13.28Z"/>
    <path class="uuid-be26353f-4bfc-412a-b9e3-e645b2166e97" d="M1611.07,136.05c-10.66.51-18.99,5.42-28.71,6.26-16.79,1.46-27.87-2.66-41.19-12.07-5.33-3.76-9.61-8.4-13.65-13.47l19.41,3.56c16.85.75,29.71-8.97,46.89-10.34,8.56-.68,4.53,1.31,5.8,3.08,15.83,1.12,32.91,6.93,42.78,19.85-6.32.31-12.5-1.66-18.8-2.07.04,1.36,1.51,1.83,2.43,2.25,2.18,1.01,2.18.61.7,1.91-4.98.57-11.45-1.28-15.67,1.04ZM1559.37,123.55c-4.54.76-12.68,0-17.75,0-.33,0-5.36-2.66-1.59,1.59,10.88,12.3,33.03,15.94,48.53,12.93,6.21-1.21,12.82-5.06,19.12-5.93,2-.27,10.29.07,10.71-.26,1.11-.9-4.53-1.88-3.13-4.16h15.14c.35,0,4.31,3.65,1.54-.49-8.4-5.63-18.7-9.57-28.79-10.87-5.31-.68-5.96,1.31-10.03-1.91-5.95-4.7-27.43,8.05-33.74,9.1Z"/>
    <path class="uuid-0294cd88-078f-434d-8268-1089b644deeb" d="M1047.1,285l-1.04,50c-8.28,1.4-4.18-3.06-5.23-4.16-.5-.53-10.9,3.88-14.08,4.18-9.03.83-26.73-2.59-26.73-14.07,0-11.79,18.47-15.04,27.68-13.98,2.77.32,12.66,4.57,13.14,4.08.94-.97-.96-26.12,0-27.08.24-.24,6.37-.49,6.27,1.05ZM1017.57,310.23c-8.99,1.5-15.72,11.07-6.99,17.96s34.17,3.08,29.8-9.93c-2.8-8.32-15.54-9.25-22.81-8.04Z"/>
    <path class="uuid-4d77abe6-9292-4310-9ec9-5026c3c737d8" d="M977.13,334.99c-.22.22-6.03.2-6.27,0-.29-.25,2.23-3.33.52-4.17-3.25,1.5-6.9,3.64-10.5,4.11-9.58,1.24-26.05-.06-29.93-10.65-2.96-8.08,6.85-14.27,13.74-15.91,5.96-1.42,12.96-1.42,18.92,0,1.95.46,7.99,4.05,8.29,3.71.48-.54-3.78-6.74,5.23-5.21-.75,3.74,1,27.13,0,28.12ZM949.97,311.04c-14.4,1.33-17.85,15.83-3.38,20.55,5.43,1.78,9.68,1.77,15.11,0,14.85-4.85,10.84-19.24-3.38-20.55l-.67-.86c-2.31-.37-4.71-.37-7.02,0l-.67.86Z"/>
    <path class="uuid-b5c0e694-a35b-4b37-8772-aba335dc8c94" d="M894.62,312.08c-2.11.38-10.26.92-9.4,4.68,1.2,5.24,33.2,2.98,35.38,9.52,2.58,7.77-11.8,9.43-17.06,9.81-6.85.49-14.6-.22-20.76-3.35-2.25-1.14-9.9-6.34-3.28-6.11,5.31.18,6.56,4.25,10.89,5.81,5.09,1.83,11.84,1.6,17.04.25,4.36-1.13,8.46-4.02,2.85-6.54-6.8-3.06-31.48-2.02-33.33-8.49s17.01-9.7,21.3-9.82c6.55-.18,17.71,3.79,21.42,9.45-6.26,1.56-7.72-1.95-12.15-4.04-1.91-.9-2.88-.76-4.56-1.16-1.4-.33-1.89-1.25-4.76-1.13-2.22.09-2.99,1.02-3.6,1.13Z"/>
    <path class="uuid-5e024be1-1504-432a-8d40-4f86455f5b49" d="M1059.63,319.37c-1.35,1.21,1.91,6.57,3.12,7.82,6.02,6.23,20.9,6.49,27.59,1.43,1.25-.95,1.58-2.9,2.34-3.04,1.65-.31,3.81.25,5.59.05-7.31,13.33-41.48,12.25-44.72-2.84-2.13-9.91,12.28-15.33,20.16-15.93,9.51-.72,23.27,2.8,26.65,12.51-5.18,1.03-39.21-1.36-40.73,0ZM1063.29,317.29c7.72-1.06,19.89,0,28.2,0,.44,0,1.82,2.69,1.56-.51-6.15-7.28-17.26-8.63-25.8-4.91-1.73.75-7.32,4.27-5.52,6.47.42.51,1.26-1,1.56-1.04Z"/>
    <path class="uuid-aa02ebff-4a55-494f-accf-d315e7621324" d="M1193.32,334.99c-6.17-3.22-14.14-21.14-19.84-26.56,2.03-.95,6.21-1.07,7.83.53l14.63,20.84c1.28.28,1.85-.78,2.6-1.57,3.38-3.58,13.29-19.23,16.37-20.12.9-.26,4.22-.41,4.52-.18,1.18.95-16.53,22.31-17.31,24.95-.61,1.05-1.51,1.57-2.54,2.12h-6.27Z"/>
    <path class="uuid-ea6ae7d2-f531-40e2-9ce8-fdc2baefaa11" d="M1294.62,318.33c.22-.22,5.99-.16,6.2.07.65.73,2.72,12.15,3.73,12.43,1.98.56,1.54-.89,2.04-2.08,2.2-5.31,1.49-12.03,8.92-10.42v19.79c0,.21-4.04.16-4.17,0-.58-.65.82-11.46-.53-11.47-.92,0-3.29,10.83-3.73,11.39-.16.2-3.86.2-4.02,0-.63-.79-2.84-12.44-3.73-12.43-1.35,0,.06,11.85-.53,12.51-.14.16-4.17.2-4.17,0,0-2.83-.7-19.09,0-19.79Z"/>
    <path class="uuid-45067a1e-24d2-4707-bc4a-a9cc1d20a7f7" d="M1502.45,79.8c-.96,1-6.76-3.18-7.19-4.88-.62-2.44,2.96-7.87,3.02-10.74,1.48-.25,1.46,1.82,1.78,2.9.54,1.87,2.98,12.11,2.39,12.72Z"/>
    <path class="uuid-cdae0ee0-550b-46a1-8551-7b792968b2b5" d="M1046.06,334.99l1.04-50c-.75,15.55.99,31.98.03,47.43-.07,1.17.41,2.32-1.08,2.57Z"/>
    <path class="uuid-44a00269-a283-47bf-8a3e-5e28f9c6ab80" d="M925.44,329.79c4.8-1.37,4.8,6.57,0,5.2-2.09-.6-2.09-4.6,0-5.2Z"/>
    <path class="uuid-67507478-e5f7-4073-b13c-7098385899c5" d="M983.93,329.79c3.53-.75,3.58,6.52-1.05,5.2-2.87-.82-.65-4.84,1.05-5.2Z"/>
    <path class="uuid-10c0328a-641a-4d17-bfcb-c859eb1063ba" d="M1215.17,334.92c-.2.19-3.95.21-4.1.07-1.52-1.46,1.54-8.54,4.75-3.13.27.46-.54,2.95-.65,3.06Z"/>
    <path class="uuid-dcf50e1a-ec2c-40b7-b4ca-18dd9d839a06" d="M1173.47,334.99c-2.43,2.4-6.57-4.37-2.6-5.2,2.35-.49,4.24,3.59,2.6,5.2Z"/>
    <path class="uuid-38bda189-1f83-4f14-8dc7-7a0bf7252ea5" d="M795.41,339.16c-3.95,2.2-10.3.72-15,.86l-.67-.86c4.93.24,10.73.23,15.67,0Z"/>
    <path class="uuid-19972801-3193-4661-9a8e-babd25e8dacf" d="M1328.75,329.95c-.1-.17,1.86-.04,2.43-.85,6.33-8.98-3.69-12.18-11.5-10.77.49,2.79,0,18.81,0,19.8,0,.05,3.13,0,3.13,0,0-3.44-.34-6.07,2.09-7.29.67,1.4,2.81,5.96,3.31,7.11.27.64,5.13.41,5.05.17-.53-1.62-3-5.54-4.51-8.17ZM1323.87,327.7c-.19-.21-.13-4.71,0-5.72.23-1.87,5.67.62,5.17,3.01-.32,1.56-4.29,3.67-5.16,2.71Z"/>
    <path class="uuid-b5c0e694-a35b-4b37-8772-aba335dc8c94" d="M902.98,312.08h-8.36c.61-.11,1.38-1.04,3.6-1.13,2.87-.12,3.36.8,4.76,1.13Z"/>
    <path class="uuid-673a9825-ab0d-4c7e-a0ce-ddb7978851dc" d="M694.15,206.31c-1.61-22.61-23.81-38.91-44.13-44.52-22.33-6.16-45.97-3.25-66.3,7.39-2.28,1.19-4.5,4.61-4.5.2,0-1.42-.31-3.36-.08-4.98-.03-1.52-.06-3.13-.07-4.75-4.87-1.1-21.78-.68-21.78.36v182.28c0,1.03,16.96-.51,21.85-.17.04-.67.08-1.3.08-1.84-.01-1.62-.01-3.23-.02-4.85-.21-1.01-.08-2.22-.01-3.24,0-2.94-.01-5.87,0-8.81-.02-8.98.05-17.96.04-26.92,0-15.96,0-31.96,0-47.91,9.77,6.24,21.46,10.61,32.98,12.41,34.61,5.4,84.93-12.76,81.94-54.64ZM665.4,225.65c-19.35,35.93-92.22,23.2-84.91-21.14,2.82-17.1,23.27-28.06,39.22-29.63,27.9-2.74,61.83,20.8,45.69,50.77Z"/>
    <path class="uuid-aa02ebff-4a55-494f-accf-d315e7621324" d="M1199.58,334.99c-2.95,1.58-3.12,1.64-6.27,0h6.27Z"/>
    <path class="uuid-673a9825-ab0d-4c7e-a0ce-ddb7978851dc" d="M1554.68,96.46c-.89-.93-13.44,1.95-16.14,2.14-8.86.61-22.64.37-25.42-10.17-.34-1.29-.06-4.29-.21-4.47-.19-.2-4,.08-5.52-.23-11.64-2.36-20.14-13.8-22.69-24.77-2.22-.09-1.98-.46-2.09,1.56-.26,4.54,1.38,8.67,1.1,13.6-.28,4.88-1.59,13.33-5.22,16.65-.93.85-5.44,3.44-6.31,3.6,2.84,5.05-.75,10.45-1.85,15.34-4.16,18.65-5.91,28.39-2.55,47.9,3.32,19.32,4.74,41.58-4.46,59.69-1.18,2.32-7.05,8.78-6.81,9.87.28,1.27,3.7,1.65,4.73,2.59l13.03,10.44c9.87,6.38,27.91,18.16,36.04,26.04,12.41,12.03-3.19,8.12-8.41,13.49-1.71,1.76-3.24,5.19-3.92,7.54-.69,2.39-.38,5.33-1.23,7.1-1.52,3.17-6.32,1.65-9.21,2.27-3.1.66-6.83,5.17-7.59,8.13-.5,1.92.68,3.09.6,4.17.62,6.12-5.17,3.69-8.84,4.2-6.93.98-7.81,9.36-10.66,10.2-4.78,1.42-6.31-2.14-9.15-1.94-4.98.34-8.22,6.4-10.71,7.15-3,.91-6.06-.79-9.18-.93-3.91-.17-8.2,2.6-9.73-1.73-1.85-5.22-.23-7.75-.18-12.22.17-14.95-1.73-34.74,0-48.9.42-3.41,5.8-15.93-1.58-15.23-1.92.18-3.56,1.85-6.28,2.14-12.91,1.41-32.67.61-43.38-6.29-6.58-4.24-13.56-8.09-18.79-14.07-3.42-3.91-11.83-16.29-12.38-21.08-.15-1.32.81-1.17.88-1.3.25-.47.54-.83,1.04-1.04-.57-.68-.82-2.12-1.61-3.05-5.73-6.69-19.03-9.06-23.29-19.52l-8.52-14.93c-3.14,8.86-7.02,17.62-9.13,26.84-6.51,28.51-2.39,56.57,12.45,81.81,15.83,26.93,52.39,55.72,84.64,58.87-.08,0-.17,0-.24,0,1.56,1.7,6.19,1.18,8.35,1.22,60.3,1.02,110.26-18.11,118.97-83.94,5.32-40.2-15.66-72.81-25.75-109.55-2.14-7.79-4.47-19.38-.13-26.67,6.73-11.28,15.46,6.71,18.12,12.88,1.12,2.59,4.55,14.23,5.74,15.12.66.49,8.42-3.28,10.16-3.45,4.1-2.05,1.31-2.35-.74-4.92-3.58-4.49-9.34-12.85-11.03-18.18-1.78-5.59,4.77-8.73,9.53-9.35,3.88-.5,22.17.63,23.32-.18,1.45-1.03,3.1-13.54,2.2-14.48ZM1490.43,115.25c-8.7.14-14.43-8.74-10.94-16.7l1.75,5c1.07,3.06,2.89,5.87,5.48,7.83,1.48,1.12,3.16,1.86,5.3,1.75.09,2.05.48,2.08-1.59,2.11ZM1504.43,97.39c-1.5,1.5-6.1,1.44-7.02-1.62-2.05-6.85,5.33-6.08,7.02-4.39,1.18,1.18,2.03,3.97,0,6.01Z"/>
    <path class="uuid-5e024be1-1504-432a-8d40-4f86455f5b49" d="M1132.39,313.29c3.23-2.07,4.52-1.62,7.67-2.25h7.31c2.42.53,4.65.61,7.01,1.86,2.04,1.08,4.06,4.07,5.52,4.38,1.27.1,2.33.13,3.11.13,1.34,0,1.89-.06,2.12-.43.24-.38.04-.92-.1-1.24,0,0,0,0,0,0-.81-2.17-6.72-5.2-8.58-5.94-8.86-3.5-20.87-3.45-29.23,1.43-9.89,5.78-9.52,14.43-.03,20.47,9.34,5.95,31.66,4.9,37.95-5.57-4.86-2.46-7.78,3.15-11.79,4.91-15.74,6.93-37.39-7.25-20.94-17.76Z"/>
    <path class="uuid-b779dcdc-44b1-4b7f-840b-932746f31209" d="M1474.26,240.21c9.87,6.38,27.91,18.16,36.04,26.04,12.42,12.03-3.19,8.12-8.41,13.49-1.71,1.76-3.24,5.19-3.92,7.54-.69,2.39-.38,5.33-1.23,7.1-1.52,3.17-6.32,1.65-9.21,2.27-3.1.66-6.83,5.17-7.59,8.13-.5,1.92.68,3.09.6,4.17-.28,3.71-5.93,1.93-7.72,2.1-2.53.24-7.66,2.47-9.05,4.61s-.93,5.97-3.77,6.75c-1.99.55-4.21-2.16-6.59-2.62-6.25-1.2-12.97,7.53-14.1,7.61-.97.07-4.08-1.65-6.29-1.82s-8.61,1.43-8.88,1.08c-.18-.23-.99-4.82-1.07-5.72-2.08-23.93,1.77-52.06,3.17-76.04.67-11.42-3.63-32.38,15.65-23.98,8.81,3.84,20.42,12.68,28.9,18.08,1.25.8,2.94.85,3.47,1.19Z"/>
    <path class="uuid-2c44ebd6-9d12-49bf-9a64-cff267d3ab3e" d="M1340.58,208.96c2.62,2.19,3.54,5.6,5.18,7.85,1.21,1.65,3.16,1.96,3.94,2.83,1.79,1.99.63,4.59,5.21,5.77,6.85,1.76,2.55.83,6.56,3.85,2.23,1.68,5.07,1.11,6.05,1.79.51.35.7,2.12,1.69,2.97,3.42,2.93,6.89.19,10.32,1.18,1.83.53,4.26,3.45,6.63,3.72,2.04.23,5-1.74,7.18-1.73,3.82.02,6.23,3.71,11.72,1.18,1.68-.78,3.23-3.49,4.78-3.24,1.41.22,3.79,2.08,5.87,2.54,2.48.54,6.84-.06,7.94,1.49.32.45-1.31,7.56-.57,9.38-12.78,1.78-25.01,3.3-37.86.78-4.89-.96-9.38-3.34-14.36-3.91-6.58-4.24-13.56-8.09-18.79-14.07-3.42-3.91-11.83-16.29-12.38-21.08-.15-1.32.81-1.17.88-1.3Z"/>
    <path class="uuid-673a9825-ab0d-4c7e-a0ce-ddb7978851dc" d="M1105.59,174.59c-2.9-.19-6.49-.17-9.4,0l.67-.86c2.65-.04,6.92-1.18,8.73.86Z"/>
    <path class="uuid-a98a309b-6f72-4a49-be2d-26828723d619" d="M1472.15,97.54c.78.76-3.32,11.21-3.86,13.28-1.22,4.68-2.71,10.71-3.33,15.43-4.41,33.6,14.2,60.65-5.51,93.45-.67,1.12-3.77,5.91-4.5,5.91-.25,0-2.4-2.49-3.16-3.14-2.16-1.87-2.87,0-2.64-4.66.18-3.59,1.69-7.05,1.17-10.87,12.36-1.46,8.12-13.35,9.36-21.39.3-1.94,1.72-3.33,2.02-5.27.97-6.2-3.85-12.49-2.97-15.41.52-1.72,2.64-1.72,3.06-5.33.81-6.86-3.12-9.11-3.19-11.5-.06-2.19,2.82-4.02,3.19-7.25.78-6.9-2.97-8.87-3.22-12.63-.17-2.54,2.99-5.18,3.15-8.34.16-3.21-2.81-6.44-2.12-10.19.08-.44,5.44-3.67,6.78-5.93s1.38-6.96,1.63-7.23c.21-.23,3.99.91,4.15,1.07Z"/>
    <path class="uuid-2d6787f8-562d-4ed1-80ba-01e5de018d38" d="M1559.37,123.55c6.31-1.06,27.79-13.8,33.74-9.1,4.07,3.21,4.72,1.22,10.03,1.91,10.08,1.3,20.38,5.25,28.79,10.87,2.77,4.14-1.19.49-1.54.49h-15.14c-1.4,2.28,4.25,3.26,3.13,4.16-.42.34-8.71-.01-10.71.26-6.3.86-12.91,4.72-19.12,5.93-15.5,3.01-37.64-.62-48.53-12.93-3.76-4.25,1.27-1.59,1.59-1.59,5.07,0,13.21.76,17.75,0ZM1614.2,125.63c-.26-1.54-1.9-2.04-3.14-2.59-5.53-2.49-22.99-2.03-29.81-1.62-10.1.61-20.61,3.57-30.76,4.22.42,1.92,2.01,1.96,3.61,2.13,9.34.95,19.19-1.99,28.34-3.08,4.75-.57,13.28-1.25,18.13-1.81-2.61,2.25-3.62,2.45-5.39,3.02-3.68,1.18-7.55,1.86-11.27,2.88.63,2.3,2.81,2.1,4.69,2.15,8.86.26,16.57-6.61,25.6-5.29Z"/>
    <path class="uuid-4d77abe6-9292-4310-9ec9-5026c3c737d8" d="M958.33,311.04c-2.38-.22-5.98-.22-8.36,0l.67-.86c2.31-.37,4.71-.37,7.02,0l.67.86Z"/>
    <path class="uuid-78bebad2-fcb5-4b01-aef5-40148108ada1" d="M1614.2,125.63c-9.02-1.32-16.74,5.55-25.6,5.29-1.88-.05-4.06.15-4.69-2.15,3.71-1.02,7.59-1.7,11.27-2.88q1.76-.56,4.53-2.55c-4.85.56-12.53.78-17.28,1.35-9.14,1.1-19,4.03-28.34,3.08-1.59-.16-3.19-.21-3.61-2.13,10.15-.65,20.66-3.61,30.76-4.22,6.82-.41,24.28-.87,29.81,1.62,1.24.56,2.87,1.05,3.14,2.59Z"/>
  </g>
</svg>