<?xml version="1.0" encoding="UTF-8"?>
<svg id="Layer_1" xmlns="http://www.w3.org/2000/svg" version="1.1" xmlns:xlink="http://www.w3.org/1999/xlink" viewBox="0 0 1661.2 400.8">
  <!-- Generator: Adobe Illustrator 29.3.1, SVG Export Plug-In . SVG Version: 2.1.0 Build 151)  -->
  <defs>
    <style>
      .st0 {
        fill: #fff;
      }

      .st1 {
        fill: #231f20;
      }

      .st2 {
        fill: #47220b;
      }

      .st3 {
        fill: #f58429;
      }

      .st4 {
        fill: #201b1f;
      }

      .st5 {
        filter: url(#outer-glow-1);
      }

      .st6 {
        fill: #2a1a10;
      }

      .st7 {
        fill: #f1852c;
      }

      .st8 {
        fill: #80c835;
      }

      .st9 {
        fill: #ec8533;
      }

      .st10 {
        fill: #ec8532;
      }

      .st11 {
        fill: #30170b;
      }
    </style>
    <filter id="outer-glow-1" x="1186.81" y="-41.97" width="317" height="361">
      <feOffset dx="0" dy="0"/>
      <feGaussianBlur result="blur" stdDeviation="39.57"/>
      <feFlood flood-color="#fff" flood-opacity=".65"/>
      <feComposite in2="blur" operator="in"/>
      <feComposite in="SourceGraphic"/>
    </filter>
  </defs>
  <path class="st8" d="M212.4,234.1c-22.7,9.2-45.7,12.8-69.6,9.2-8.3-1.2-16.7-1.3-24.9-1.8-.3.4-.7.7-.7,1-.2,20.7-.8,41.4-.5,62.1.2,16.5,11.2,20.3,22.5,22.2,6.7,1.1,13.6,1.8,20.3,2.4,2.9.2,3.9,1.5,3.7,4.4-.4,4.3-.7,8.7-1,13.3H14.3c0-4.9-.4-9.7.2-14.3.2-1.3,2.9-2.8,4.7-3.2,6.2-1.3,12.6-1.3,18.6-3.2,11.8-3.7,14.7-14.2,15.3-25.2,1-20.2,1.7-40.4,2-60.6.8-47.6,1.6-95.3,2-142.9,0-5.9-.7-11.9-2.1-17.6-2.2-8.7-9-12.8-17-14.5-6.3-1.4-12.8-2-19.9-3.1.4-5.4.7-10.9,1.1-16.9h120.3c17.6,0,35.3.9,52.5,5.2,27,6.7,50.8,18.6,65.6,44.2,12.7,22,16.4,45.9,12,70.9-5.8,32.6-25.4,53.7-54.1,67-1,.3-1.9.8-3.1,1.4h0ZM127,135.3c-5.6,17.6-11.3,35.1-17,52.6-2.5,7.6-1.6,11.6,5.5,14.3,7.9,3,16.3,5.7,24.6,6.3,14.3,1,28.7.8,43.1,0,10-.5,20.1-2.3,28.8-8.1,3.7-2.4,7-5.5,4.9-10.7-7.8-19.9-15.1-40-23.6-59.5-7-15.9-10.1-32.2-9.3-49.3.4-7.2.4-8-6.6-8-13.1,0-26.3.5-39.4,1.1-1.7,0-3.3,1.4-3.9,1.6.6,5.2,1.4,9.4,1.4,13.7.1,7.3.7,14.9-.7,22.1-1.6,7.9-5,15.5-7.8,24.1h0v-.2Z"/>
  <g>
    <path class="st0" d="M786.5,267.1c-20.5-1-41.1-9.4-53.7-26.1-1.9-2.6-7.9-14.5-7.9-17.1v-59.9h23.5c0,0,1.6,1.4,1.6,1.6v57.3c0,1.8,4.3,10,5.8,11.9,15.1,19.6,44.1,22.8,65.1,10.9,27.4-15.4,15.8-48.3,17.8-75,0-1,.8-6.7,1.1-6.7h21.9v139.1c0,2.9-6.8,15.4-9,18.1-12.1,15.4-32.2,24.2-51.6,25.1-4.9.2-10.7.2-15.7,0-29.3-1.4-62.8-21.5-60.6-54.2h23.5c2.1,0,1.5,8.1,2,10.5,7.5,34.1,66.2,38.8,84,9.7.8-1.3,4.3-8.5,4.3-9.2v-47.4l-18.5,8.1c-6.8,2-13,3.1-20.1,3.4-4.3.2-9.3.2-13.6,0h.1Z"/>
    <path class="st0" d="M950.5,269.2c-13.8.1-24.9-.3-37.9-5.5-14.7-5.8-30.9-18.4-35.2-34.1h24.5c1.1,0,7.8,9.9,9.4,11.5,15.1,15.6,50.3,17.2,67.3,4.6,13.3-9.9-5.1-15-13.2-16.9-19.7-4.5-68.7-5.5-81.2-21.1-11-13.7,2-27.4,14.4-33.6,25.9-12.8,62.7-13.5,87.7,1.4,9.4,5.6,21.5,15.6,22.7,26.9h-23.5c-.5,0-4.1-6.1-5.2-7.3-13.7-15.6-48.8-18.1-65.2-6.7-17.6,12.2,11.7,16.6,20.4,18.1,18.7,3.1,64,4.2,74.4,21.6,1.5,2.6,1.6,5,2.2,7.7v5.2c-5.2,21.1-36.3,25.3-55.1,27.6-1.5.2-4.2.5-6.5.5h0Z"/>
    <path class="st0" d="M1173,211.9c.2,3.4,0,7,0,10.4-10.2,57.1-107.8,62.1-132.2,13.6-18.1-36,19.6-68,53.3-70.9,30.3-2.6,76.7,10.9,78.9,46.9h0ZM1101.9,181.7c-28.4,1.6-54.5,29.4-33.4,55.7,18.6,23.2,65.4,21.9,78.9-5.7,12.6-25.8-11.1-48.4-36.1-50-1.8-2-6.1-.9-8.7-.9l-.7.9h0Z"/>
    <path class="st0" d="M473,165.3c20.7-2.1,41.7,1.6,58.6,13.9,19.8,14.4,28,37.2,14.9,59.5-23.8,40.3-100.8,40.3-124.7,0-21.9-37.1,15.8-69.7,51.1-73.3h.1ZM482.4,180.9c-38.9,2.2-60,45-22.4,66.6,20.1,11.5,52.7,7.4,65.3-13.4,11.9-19.6.4-41-19.4-49.1-6.1-2.5-17-4.6-23.5-4.2h0Z"/>
    <rect class="st0" x="1202.2" y="85.9" width="25.1" height="183.3"/>
    <path class="st0" d="M312.4,266.1c-.4.4-.2.9-1.5,1-2.6.4-16.8.5-18.7-.1-.5-.2-1.7-1.1-1.7-1.4v-98.9c0-.1,1.5-1.6,1.6-1.6h18.8c2.9,0,.8,11.6,1.6,12.5.5.6,11.6-6,13.6-6.8,21.4-8.6,51-8.1,71.7,2.4,1.9,1,11.8,7.8,11.8,9.1v33.8c-1.5-.3-5.2.5-6.2-.1-.4-.3-1.9-8.2-2.7-10.3-6.6-16.8-28.9-26.1-46-25.1-16.1.9-38.4,12-41.8,29.2-2.4,12-.5,35.6-.5,49v7.3h0Z"/>
    <path class="st0" d="M1052.9,292.1l-1,50c-8.3,1.4-4.2-3.1-5.2-4.2-.5-.5-10.9,3.9-14.1,4.2-9,.8-26.7-2.6-26.7-14.1s18.5-15,27.7-14c2.8.3,12.7,4.6,13.1,4.1.9-1-1-26.1,0-27.1.2-.2,6.4-.5,6.3,1h-.1ZM1023.3,317.3c-9,1.5-15.7,11.1-7,18,9.1,7.2,34.2,3.1,29.8-9.9-2.8-8.3-15.5-9.2-22.8-8h0Z"/>
    <path class="st0" d="M982.9,342.1c-.2.2-6,.2-6.3,0s2.2-3.3.5-4.2c-3.2,1.5-6.9,3.6-10.5,4.1-9.6,1.2-26,0-29.9-10.6-3-8.1,6.8-14.3,13.7-15.9,6-1.4,13-1.4,18.9,0,2,.5,8,4,8.3,3.7.5-.5-3.8-6.7,5.2-5.2-.8,3.7,1,27.1,0,28.1h0ZM955.7,318.1c-14.4,1.3-17.8,15.8-3.4,20.5,5.4,1.8,9.7,1.8,15.1,0,14.8-4.9,10.8-19.2-3.4-20.5l-.7-.9c-2.3-.4-4.7-.4-7,0l-.7.9h.1Z"/>
    <path class="st0" d="M900.4,319.2c-2.1.4-10.3.9-9.4,4.7,1.2,5.2,33.2,3,35.4,9.5,2.6,7.8-11.8,9.4-17.1,9.8-6.8.5-14.6-.2-20.8-3.4-2.2-1.1-9.9-6.3-3.3-6.1,5.3.2,6.6,4.2,10.9,5.8,5.1,1.8,11.8,1.6,17,.2,4.4-1.1,8.5-4,2.8-6.5-6.8-3.1-31.5-2-33.3-8.5-1.8-6.4,17-9.7,21.3-9.8,6.5-.2,17.7,3.8,21.4,9.5-6.3,1.6-7.7-2-12.2-4-1.9-.9-2.9-.8-4.6-1.2-1.4-.3-1.9-1.2-4.8-1.1-2.2,0-3,1-3.6,1.1h.3Z"/>
    <path class="st0" d="M1065.4,326.5c-1.3,1.2,1.9,6.6,3.1,7.8,6,6.2,20.9,6.5,27.6,1.4,1.2-1,1.6-2.9,2.3-3,1.7-.3,3.8.2,5.6,0-7.3,13.3-41.5,12.2-44.7-2.8-2.1-9.9,12.3-15.3,20.2-15.9,9.5-.7,23.3,2.8,26.7,12.5-5.2,1-39.2-1.4-40.7,0h0ZM1069,324.4c7.7-1.1,19.9,0,28.2,0s1.8,2.7,1.6-.5c-6.2-7.3-17.3-8.6-25.8-4.9-1.7.8-7.3,4.3-5.5,6.5.4.5,1.3-1,1.6-1h0Z"/>
    <path class="st0" d="M1199.1,342.1c-6.2-3.2-14.1-21.1-19.8-26.6,2-1,6.2-1.1,7.8.5l14.6,20.8c1.3.3,1.8-.8,2.6-1.6,3.4-3.6,13.3-19.2,16.4-20.1.9-.3,4.2-.4,4.5-.2,1.2,1-16.5,22.3-17.3,25-.6,1-1.5,1.6-2.5,2.1h-6.3,0Z"/>
    <path class="st0" d="M1051.8,342.1l1-50c-.8,15.5,1,32,0,47.4,0,1.2.4,2.3-1.1,2.6h0Z"/>
    <path class="st0" d="M931.2,336.9c4.8-1.4,4.8,6.6,0,5.2-2.1-.6-2.1-4.6,0-5.2Z"/>
    <path class="st0" d="M989.7,336.9c3.5-.8,3.6,6.5-1,5.2-2.9-.8-.7-4.8,1-5.2Z"/>
    <path class="st0" d="M1220.9,342c-.2.2-3.9.2-4.1,0-1.5-1.5,1.5-8.5,4.8-3.1.3.5-.5,3-.7,3.1h0Z"/>
    <path class="st0" d="M1179.2,342.1c-2.4,2.4-6.6-4.4-2.6-5.2,2.3-.5,4.2,3.6,2.6,5.2Z"/>
    <path class="st0" d="M801.2,346.3c-4,2.2-10.3.7-15,.9l-.7-.9c4.9.2,10.7.2,15.7,0Z"/>
    <path class="st0" d="M908.7,319.2h-8.4c.6-.1,1.4-1,3.6-1.1,2.9-.1,3.4.8,4.8,1.1h0Z"/>
    <path class="st0" d="M699.9,213.4c-1.6-22.6-23.8-38.9-44.1-44.5-22.3-6.2-46-3.2-66.3,7.4-2.3,1.2-4.5,4.6-4.5.2s-.3-3.4,0-5v-4.8c-4.9-1.1-21.8-.7-21.8.4v182.3c0,1,17-.5,21.8-.2v-6.7c-.2-1,0-2.2,0-3.2v-83.6c9.8,6.2,21.5,10.6,33,12.4,34.6,5.4,84.9-12.8,81.9-54.6h0ZM671.2,232.7c-19.3,35.9-92.2,23.2-84.9-21.1,2.8-17.1,23.3-28.1,39.2-29.6,27.9-2.7,61.8,20.8,45.7,50.8h0Z"/>
    <path class="st0" d="M1205.3,342.1c-2.9,1.6-3.1,1.6-6.3,0h6.3Z"/>
    <path class="st0" d="M1138.1,320.4c3.2-2.1,4.5-1.6,7.7-2.2h7.3c2.4.5,4.7.6,7,1.9,2,1.1,4.1,4.1,5.5,4.4,1.3.1,2.3.1,3.1.1,1.3,0,1.9,0,2.1-.4s0-.9,0-1.2h0c-.8-2.2-6.7-5.2-8.6-5.9-8.9-3.5-20.9-3.5-29.2,1.4-9.9,5.8-9.5,14.4,0,20.5,9.3,6,31.7,4.9,37.9-5.6-4.9-2.5-7.8,3.1-11.8,4.9-15.7,6.9-37.4-7.2-20.9-17.8h0Z"/>
    <path class="st0" d="M1111.3,181.7c-2.9-.2-6.5-.2-9.4,0l.7-.9c2.7,0,6.9-1.2,8.7.9h0Z"/>
    <path class="st0" d="M964.1,318.1c-2.4-.2-6-.2-8.4,0l.7-.9c2.3-.4,4.7-.4,7,0l.7.9Z"/>
    <g class="st5">
      <path class="st1" d="M1340.1,158.8c.8,6.8,1.5,12.6,5.8,17.7,5.2,6.2,15.6,10.9,20.3,6.8,8.9-7.8-3.9-20.2-11-13.1-2.3,2.3-.4,5.9-4.7,3.7-7-3.6-11.3-21-3.1-25,19.3-9.5,39.2,3.4,42.8,23.4v8.3c-7.3,39.9-61,29.7-69.5-2.1-6.3-23.9,3.5-39.2,5.7-61,1.4-14.1-5-23.4-14.5-32.7,21.3-2.3,27.4,18.1,28.2,35.4v25c-.4,3.3-.7,8,0,13.5h0Z"/>
      <path class="st11" d="M1477.9,101.5c2.8,5.1-.8,10.4-1.8,15.3-4.2,18.6-5.9,28.4-2.6,47.9,3.3,19.3,4.7,41.6-4.5,59.7-1.2,2.3-7.1,8.8-6.8,9.9.3,1.3,3.7,1.6,4.7,2.6l13,10.4c-.5-.3-2.2-.4-3.5-1.2-8.5-5.4-20.1-14.2-28.9-18.1-19.3-8.4-15,12.6-15.7,24-1.4,24-5.2,52.1-3.2,76,0,.9.9,5.5,1.1,5.7.3.4,6.6-1.2,8.9-1.1s5.3,1.9,6.3,1.8c1.1,0,7.8-8.8,14.1-7.6,2.4.5,4.6,3.2,6.6,2.6,2.8-.8,2.4-4.7,3.8-6.8,1.4-2.1,6.5-4.4,9.1-4.6,1.8-.2,7.4,1.6,7.7-2.1.6,6.1-5.2,3.7-8.8,4.2-6.9,1-7.8,9.4-10.7,10.2-4.8,1.4-6.3-2.1-9.2-1.9-5,.3-8.2,6.4-10.7,7.1-3,.9-6.1-.8-9.2-.9-3.9-.2-8.2,2.6-9.7-1.7-1.8-5.2-.2-7.8-.2-12.2.2-15-1.7-34.7,0-48.9.4-3.4,5.8-15.9-1.6-15.2-1.9.2-3.6,1.9-6.3,2.1-12.9,1.4-32.7.6-43.4-6.3,5,.6,9.5,2.9,14.4,3.9,12.8,2.5,25.1,1,37.9-.8-.7-1.8.9-8.9.6-9.4-1.1-1.6-5.5-.9-7.9-1.5-2.1-.5-4.5-2.3-5.9-2.5-1.6-.2-3.1,2.5-4.8,3.2-5.5,2.5-7.9-1.2-11.7-1.2s-5.1,2-7.2,1.7c-2.4-.3-4.8-3.2-6.6-3.7-3.4-1-6.9,1.7-10.3-1.2-1-.9-1.2-2.6-1.7-3-1-.7-3.8-.1-6.1-1.8-4-3,.3-2.1-6.6-3.9-4.6-1.2-3.4-3.8-5.2-5.8-.8-.9-2.7-1.2-3.9-2.8-1.6-2.2-2.6-5.7-5.2-7.9.2-.5.5-.8,1-1,1.4,1.8,4,1.9,4.7,3.1s.3,3.1,1,4.2c.6.9,2.9,1.1,4.2,2,2,1.4,3.1,4.3,3.9,5,1,.7,3.3.6,5,1.8,1.5,1.1,1.9,3.2,2.3,3.5,1,.7,3.5-.4,5.1.7,1.2.8,1.5,3.9,3.8,4.5,3.6,1.1,7.9-1.1,9.2-.8s1,4,6.4,4.1c3.5.1,4.7-2.2,6.2-2.2s3,2.1,4.6,2.7c7.1,2.4,9.1-4.8,12.1-4.8s4,2,5.8,2.6c9.7,3.5,6.5-.4,7.3-7.3.9-7.9,4.7-12.1,13-10.9,2,.3,9.6,4.5,11,3.1.5-.5-.5-9.4.2-11.8.8-2.6,4.9-2.2,7.1-4.4,2.5-2.5,3.7-6.6,3-10.1-.4-1.9-3.2-5.1-2.9-6.4.3-1.4,4.7-1.6,5.2-7.4.6-6.8-5.4-13.8-5.3-14.6.4-1.7,4.7-.4,4.2-7.3-.3-4.9-5.2-9.8-5.2-10.4s6.1-2.6,6.3-8.3c0-2-1.1-6.6-2.3-8.2s-2.6-1.3-3-1.7c-.8-.6,5.3-7.3,5.3-10.9s-2.6-5.3-3.7-7.8c-2.1-4.6,1-2.4,4-3.3,5.3-1.5,3.3-13.8,3.8-14.4.6-.6,6,2.5,8.3,2.1h0v.4ZM1477.9,104.6c-.2-.2-3.9-1.3-4.2-1.1-.2.3-.3,4.9-1.6,7.2s-6.7,5.5-6.8,5.9c-.7,3.8,2.3,7,2.1,10.2s-3.3,5.8-3.2,8.3c.2,3.8,4,5.7,3.2,12.6-.4,3.2-3.2,5.1-3.2,7.2s4,4.6,3.2,11.5c-.4,3.6-2.5,3.6-3.1,5.3-.9,2.9,3.9,9.2,3,15.4-.3,1.9-1.7,3.3-2,5.3-1.2,8,3,19.9-9.4,21.4.5,3.8-1,7.3-1.2,10.9-.2,4.7.5,2.8,2.6,4.7.8.6,2.9,3.1,3.2,3.1.7,0,3.8-4.8,4.5-5.9,19.7-32.8,1.1-59.8,5.5-93.4.6-4.7,2.1-10.8,3.3-15.4.5-2.1,4.6-12.5,3.9-13.3h.2Z"/>
      <path class="st6" d="M1616.8,143.2c-10.7.5-19,5.4-28.7,6.3-16.8,1.5-27.9-2.7-41.2-12.1-5.3-3.8-9.6-8.4-13.7-13.5l19.4,3.6c16.8.8,29.7-9,46.9-10.3,8.6-.7,4.5,1.3,5.8,3.1,15.8,1.1,32.9,6.9,42.8,19.9-6.3.3-12.5-1.7-18.8-2.1,0,1.4,1.5,1.8,2.4,2.2,2.2,1,2.2.6.7,1.9-5,.6-11.4-1.3-15.7,1h0ZM1565.1,130.7c-4.5.8-12.7,0-17.8,0s-5.4-2.7-1.6,1.6c10.9,12.3,33,15.9,48.5,12.9,6.2-1.2,12.8-5.1,19.1-5.9,2-.3,10.3,0,10.7-.3,1.1-.9-4.5-1.9-3.1-4.2h15.1c.3,0,4.3,3.6,1.5-.5-8.4-5.6-18.7-9.6-28.8-10.9-5.3-.7-6,1.3-10-1.9-5.9-4.7-27.4,8.1-33.7,9.1h.1Z"/>
      <path class="st0" d="M1300.4,325.4c.2-.2,6-.2,6.2,0,.7.7,2.7,12.1,3.7,12.4,2,.6,1.5-.9,2-2.1,2.2-5.3,1.5-12,8.9-10.4v19.8c0,.2-4,.2-4.2,0-.6-.6.8-11.5-.5-11.5s-3.3,10.8-3.7,11.4c-.2.2-3.9.2-4,0-.6-.8-2.8-12.4-3.7-12.4-1.3,0,0,11.9-.5,12.5,0,.2-4.2.2-4.2,0,0-2.8-.7-19.1,0-19.8h0Z"/>
      <path class="st4" d="M1508.2,86.9c-1,1-6.8-3.2-7.2-4.9-.6-2.4,3-7.9,3-10.7,1.5-.2,1.5,1.8,1.8,2.9.5,1.9,3,12.1,2.4,12.7h0Z"/>
      <path class="st0" d="M1334.5,337c0-.2,1.9,0,2.4-.9,6.3-9-3.7-12.2-11.5-10.8.5,2.8,0,18.8,0,19.8s3.1,0,3.1,0c0-3.4-.3-6.1,2.1-7.3.7,1.4,2.8,6,3.3,7.1.3.6,5.1.4,5.1.2-.5-1.6-3-5.5-4.5-8.2h0ZM1329.6,334.8c-.2-.2,0-4.7,0-5.7.2-1.9,5.7.6,5.2,3-.3,1.6-4.3,3.7-5.2,2.7h0Z"/>
      <path class="st1" d="M1560.4,103.6c-.9-.9-13.4,1.9-16.1,2.1-8.9.6-22.6.4-25.4-10.2-.3-1.3,0-4.3-.2-4.5s-4,0-5.5-.2c-11.6-2.4-20.1-13.8-22.7-24.8-2.2,0-2-.5-2.1,1.6-.3,4.5,1.4,8.7,1.1,13.6s-1.6,13.3-5.2,16.7c-.9.8-5.4,3.4-6.3,3.6,2.8,5.1-.8,10.4-1.8,15.3-4.2,18.6-5.9,28.4-2.6,47.9,3.3,19.3,4.7,41.6-4.5,59.7-1.2,2.3-7.1,8.8-6.8,9.9.3,1.3,3.7,1.6,4.7,2.6l13,10.4c9.9,6.4,27.9,18.2,36,26,12.4,12-3.2,8.1-8.4,13.5-1.7,1.8-3.2,5.2-3.9,7.5-.7,2.4-.4,5.3-1.2,7.1-1.5,3.2-6.3,1.6-9.2,2.3-3.1.7-6.8,5.2-7.6,8.1-.5,1.9.7,3.1.6,4.2.6,6.1-5.2,3.7-8.8,4.2-6.9,1-7.8,9.4-10.7,10.2-4.8,1.4-6.3-2.1-9.2-1.9-5,.3-8.2,6.4-10.7,7.1-3,.9-6.1-.8-9.2-.9-3.9-.2-8.2,2.6-9.7-1.7-1.8-5.2-.2-7.8-.2-12.2.2-15-1.7-34.7,0-48.9.4-3.4,5.8-15.9-1.6-15.2-1.9.2-3.6,1.9-6.3,2.1-12.9,1.4-32.7.6-43.4-6.3-6.6-4.2-13.6-8.1-18.8-14.1-3.4-3.9-11.8-16.3-12.4-21.1-.2-1.3.8-1.2.9-1.3.2-.5.5-.8,1-1-.6-.7-.8-2.1-1.6-3.1-5.7-6.7-19-9.1-23.3-19.5l-8.5-14.9c-3.1,8.9-7,17.6-9.1,26.8-6.5,28.5-2.4,56.6,12.4,81.8,15.8,26.9,52.4,55.7,84.6,58.9h-.2c1.6,1.7,6.2,1.2,8.3,1.2,60.3,1,110.3-18.1,119-83.9,5.3-40.2-15.7-72.8-25.8-109.6-2.1-7.8-4.5-19.4,0-26.7,6.7-11.3,15.5,6.7,18.1,12.9,1.1,2.6,4.6,14.2,5.7,15.1.7.5,8.4-3.3,10.2-3.4,4.1-2.1,1.3-2.4-.7-4.9-3.6-4.5-9.3-12.8-11-18.2-1.8-5.6,4.8-8.7,9.5-9.3,3.9-.5,22.2.6,23.3-.2,1.4-1,3.1-13.5,2.2-14.5h.2ZM1496.2,122.4c-8.7,0-14.4-8.7-10.9-16.7l1.8,5c1.1,3.1,2.9,5.9,5.5,7.8,1.5,1.1,3.2,1.9,5.3,1.8,0,2.1.5,2.1-1.6,2.1h-.1ZM1510.2,104.5c-1.5,1.5-6.1,1.4-7-1.6-2.1-6.8,5.3-6.1,7-4.4,1.2,1.2,2,4,0,6Z"/>
      <path class="st3" d="M1480,247.3c9.9,6.4,27.9,18.2,36,26,12.4,12-3.2,8.1-8.4,13.5-1.7,1.8-3.2,5.2-3.9,7.5s-.4,5.3-1.2,7.1c-1.5,3.2-6.3,1.6-9.2,2.3-3.1.7-6.8,5.2-7.6,8.1-.5,1.9.7,3.1.6,4.2-.3,3.7-5.9,1.9-7.7,2.1-2.5.2-7.7,2.5-9.1,4.6-1.3,2.1-.9,6-3.8,6.8-2,.5-4.2-2.2-6.6-2.6-6.2-1.2-13,7.5-14.1,7.6-1,0-4.1-1.6-6.3-1.8s-8.6,1.4-8.9,1.1c-.2-.2-1-4.8-1.1-5.7-2.1-23.9,1.8-52.1,3.2-76,.7-11.4-3.6-32.4,15.7-24,8.8,3.8,20.4,12.7,28.9,18.1,1.2.8,2.9.9,3.5,1.2h0Z"/>
      <path class="st7" d="M1346.3,216.1c2.6,2.2,3.5,5.6,5.2,7.9,1.2,1.6,3.2,2,3.9,2.8,1.8,2,.6,4.6,5.2,5.8,6.8,1.8,2.6.8,6.6,3.9,2.2,1.7,5.1,1.1,6.1,1.8.5.4.7,2.1,1.7,3,3.4,2.9,6.9.2,10.3,1.2,1.8.5,4.3,3.4,6.6,3.7,2,.2,5-1.7,7.2-1.7,3.8,0,6.2,3.7,11.7,1.2,1.7-.8,3.2-3.5,4.8-3.2,1.4.2,3.8,2.1,5.9,2.5,2.5.5,6.8,0,7.9,1.5.3.4-1.3,7.6-.6,9.4-12.8,1.8-25,3.3-37.9.8-4.9-1-9.4-3.3-14.4-3.9-6.6-4.2-13.6-8.1-18.8-14.1-3.4-3.9-11.8-16.3-12.4-21.1-.2-1.3.8-1.2.9-1.3h0v-.2Z"/>
      <path class="st10" d="M1477.9,104.6c.8.8-3.3,11.2-3.9,13.3-1.2,4.7-2.7,10.7-3.3,15.4-4.4,33.6,14.2,60.7-5.5,93.5-.7,1.1-3.8,5.9-4.5,5.9s-2.4-2.5-3.2-3.1c-2.2-1.9-2.9,0-2.6-4.7.2-3.6,1.7-7.1,1.2-10.9,12.4-1.5,8.1-13.4,9.4-21.4.3-1.9,1.7-3.3,2-5.3,1-6.2-3.8-12.5-3-15.4.5-1.7,2.6-1.7,3.1-5.3.8-6.9-3.1-9.1-3.2-11.5,0-2.2,2.8-4,3.2-7.2.8-6.9-3-8.9-3.2-12.6-.2-2.5,3-5.2,3.2-8.3s-2.8-6.4-2.1-10.2c0-.4,5.4-3.7,6.8-5.9s1.4-7,1.6-7.2,4,.9,4.2,1.1h0l-.2-.2Z"/>
      <path class="st9" d="M1565.1,130.7c6.3-1.1,27.8-13.8,33.7-9.1,4.1,3.2,4.7,1.2,10,1.9,10.1,1.3,20.4,5.2,28.8,10.9,2.8,4.1-1.2.5-1.5.5h-15.1c-1.4,2.3,4.2,3.3,3.1,4.2-.4.3-8.7,0-10.7.3-6.3.9-12.9,4.7-19.1,5.9-15.5,3-37.6-.6-48.5-12.9-3.8-4.2,1.3-1.6,1.6-1.6,5.1,0,13.2.8,17.8,0h-.1ZM1620,132.7c-.3-1.5-1.9-2-3.1-2.6-5.5-2.5-23-2-29.8-1.6-10.1.6-20.6,3.6-30.8,4.2.4,1.9,2,2,3.6,2.1,9.3.9,19.2-2,28.3-3.1,4.8-.6,13.3-1.2,18.1-1.8-2.6,2.2-3.6,2.4-5.4,3-3.7,1.2-7.6,1.9-11.3,2.9.6,2.3,2.8,2.1,4.7,2.1,8.9.3,16.6-6.6,25.6-5.3h.1Z"/>
      <path class="st2" d="M1620,132.7c-9-1.3-16.7,5.6-25.6,5.3-1.9,0-4.1.1-4.7-2.1,3.7-1,7.6-1.7,11.3-2.9,1.2-.4,2.7-1.2,4.5-2.6-4.8.6-12.5.8-17.3,1.3-9.1,1.1-19,4-28.3,3.1-1.6-.2-3.2-.2-3.6-2.1,10.2-.7,20.7-3.6,30.8-4.2,6.8-.4,24.3-.9,29.8,1.6,1.2.6,2.9,1.1,3.1,2.6h0Z"/>
    </g>
  </g>
</svg>